<svg xmlns="http://www.w3.org/2000/svg" version="1.1" xmlns:xlink="http://www.w3.org/1999/xlink" xmlns:svgjs="http://svgjs.dev/svgjs" width="1000" height="141" viewBox="0 0 1000 141"><g transform="matrix(1,0,0,1,-0.6060534084721212,-0.3467315122051531)"><svg viewBox="0 0 396 56" data-background-color="#f9e17e" preserveAspectRatio="xMidYMid meet" height="141" width="1000" xmlns="http://www.w3.org/2000/svg" xmlnsxlink="http://www.w3.org/1999/xlink"><g id="tight-bounds" transform="matrix(1,0,0,1,0.23999714975497,0.13771015694180733)"><svg viewBox="0 0 395.52 55.72458087367178" height="55.72458087367178" width="395.52"><g><svg viewBox="0 0 395.52 55.72458087367178" height="55.72458087367178" width="395.52"><g><svg viewBox="0 0 395.52 55.72458087367178" height="55.72458087367178" width="395.52"><g id="textblocktransform"><svg viewBox="0 0 395.52 55.72458087367178" height="55.72458087367178" width="395.52" id="textblock"><g><svg viewBox="0 0 395.52 55.72458087367178" height="55.72458087367178" width="395.52"><g transform="matrix(1,0,0,1,0,0)"><svg width="395.52" viewBox="0 -35.79999923706055 254.08999633789062 35.79999923706055" height="55.72458087367178" data-palette-color="#454545"><path d="M10.75-2.15L34.2-2.15 34.2 0 0 0 0-2.15 4.85-2.15 4.85-34.95 16.85-34.95Q24.8-34.95 28.45-31.9 32.1-28.85 32.1-22.5 32.1-16.15 28.38-13.2 24.65-10.25 16.95-10.25L16.95-10.25 10.75-10.25 10.75-2.15ZM17.6-15.6Q22.5-15.6 24.28-17.48 26.05-19.35 26.05-22.98 26.05-26.6 23.8-28.1 21.55-29.6 16.75-29.6L16.75-29.6 10.75-29.6 10.75-15.6 17.6-15.6ZM67-2.15L71.85-2.15 71.85 0 61.05 0 52.7-11.75 44.95-11.75 44.95 0 34.2 0 34.2-2.15 39.05-2.15 39.05-34.95 52.05-34.95Q60.05-34.95 63.5-32.25 66.95-29.55 66.95-23.6L66.95-23.6Q66.95-14.95 59.4-12.7L59.4-12.7 67-2.15ZM52.3-17.1Q57.3-17.1 59.1-18.65 60.9-20.2 60.9-23.63 60.9-27.05 59.05-28.33 57.2-29.6 52.45-29.6L52.45-29.6 44.95-29.6 44.95-17.1 52.3-17.1ZM101.14-2.15L112.59-2.15 112.59 0 70.59 0 70.59-2.15 82.05-2.15Q77.94-4.5 75.57-8.6 73.19-12.7 73.19-17.75L73.19-17.75Q73.19-25.45 78.5-30.63 83.8-35.8 91.59-35.8 99.39-35.8 104.69-30.63 110-25.45 110-17.75L110-17.75Q110-12.75 107.62-8.6 105.25-4.45 101.14-2.15L101.14-2.15ZM100.37-26.7Q96.8-30.4 91.59-30.4 86.39-30.4 82.82-26.7 79.25-23 79.25-17.73 79.25-12.45 82.82-8.75 86.39-5.05 91.59-5.05 96.8-5.05 100.37-8.75 103.94-12.45 103.94-17.73 103.94-23 100.37-26.7ZM112.59-2.15L117.44-2.15 117.44-34.95 123.34-34.95 143.64-8.85 143.64-34.95 149.54-34.95 149.54-2.15 154.39-2.15 154.39 0 143.14 0 123.34-25.5 123.34 0 112.59 0 112.59-2.15ZM154.39-2.15L159.24-2.15 159.24-34.95 183.79-34.95 183.79-29.4 165.14-29.4 165.14-20.15 181.89-20.15 181.89-14.9 165.14-14.9 165.14-5.55 184.39-5.55 184.39-2.15 189.24-2.15 189.24 0 154.39 0 154.39-2.15ZM217.34-2.15L223.89-2.15 223.89 0 187.09 0 187.09-2.15 198.19-2.15Q194.24-4.5 191.96-8.55 189.69-12.6 189.69-17.7L189.69-17.7Q189.69-25.4 195.01-30.6 200.34-35.8 208.46-35.8 216.59-35.8 222.04-29.8L222.04-29.8 218.29-25.7Q215.79-28.1 213.56-29.05 211.34-30 208.34-30L208.34-30Q203.04-30 199.44-26.58 195.84-23.15 195.84-17.82 195.84-12.5 199.41-8.93 202.99-5.35 207.89-5.35L207.89-5.35Q210.94-5.35 213.14-6.38 215.34-7.4 217.74-9.65L217.74-9.65 221.54-5.75Q219.34-3.35 217.34-2.15L217.34-2.15ZM241.94-2.15L254.09-2.15 254.09 0 223.89 0 223.89-2.15 236.04-2.15 236.04-29.55 225.44-29.55 225.44-34.95 252.54-34.95 252.54-29.55 241.94-29.55 241.94-2.15Z" opacity="1" transform="matrix(1,0,0,1,0,0)" fill="#454545" class="wordmark-text-0" data-fill-palette-color="primary" id="text-0"></path></svg></g></svg></g></svg></g></svg></g><g></g></svg></g><defs></defs></svg><rect width="395.52" height="55.72458087367178" fill="none" stroke="none" visibility="hidden"></rect></g></svg></g></svg>